<?xml version="1.0" encoding="UTF-8" standalone="no"?>
<!DOCTYPE svg PUBLIC "-//W3C//DTD SVG 1.1//EN"
 "http://www.w3.org/Graphics/SVG/1.1/DTD/svg11.dtd">
<!-- Generated by graphviz version 2.38.0 (20140413.2041)
 -->
<!-- Title: G Pages: 1 -->
<svg width="166pt" height="319pt"
 viewBox="0.00 0.00 166.00 319.00" xmlns="http://www.w3.org/2000/svg" xmlns:xlink="http://www.w3.org/1999/xlink">
<g id="graph0" class="graph" transform="scale(1 1) rotate(0) translate(4 315)">
<title>G</title>
<polygon fill="white" stroke="none" points="-4,4 -4,-315 162,-315 162,4 -4,4"/>
<!-- 0 -->
<g id="node1" class="node"><title>0</title>
<polygon fill="lightgrey" stroke="black" points="68.5,-23 45.5,-23 45.5,-0 68.5,-0 68.5,-23"/>
<text text-anchor="middle" x="57" y="-7.8" font-family="Times New Roman,serif" font-size="14.00">0</text>
</g>
<!-- 1 -->
<g id="node2" class="node"><title>1</title>
<polygon fill="lightgrey" stroke="black" points="142.5,-23 119.5,-23 119.5,-0 142.5,-0 142.5,-23"/>
<text text-anchor="middle" x="131" y="-7.8" font-family="Times New Roman,serif" font-size="14.00">1</text>
</g>
<!-- 2 -->
<g id="node3" class="node"><title>2</title>
<ellipse fill="none" stroke="black" cx="27" cy="-293" rx="27" ry="18"/>
<text text-anchor="middle" x="27" y="-289.3" font-family="Times New Roman,serif" font-size="14.00">0</text>
</g>
<!-- 2&#45;&gt;0 -->
<g id="edge1" class="edge"><title>2&#45;&gt;0</title>
<path fill="none" stroke="black" stroke-dasharray="1,5" d="M23.7517,-274.888C21.9542,-264.542 19.9053,-251.063 19,-239 13.2327,-162.151 37.8348,-72.2338 50.2361,-32.7869"/>
<polygon fill="black" stroke="black" points="53.5707,-33.8502 53.3067,-23.2586 46.9081,-31.7031 53.5707,-33.8502"/>
</g>
<!-- 3 -->
<g id="node4" class="node"><title>3</title>
<ellipse fill="none" stroke="black" cx="55" cy="-221" rx="27" ry="18"/>
<text text-anchor="middle" x="55" y="-217.3" font-family="Times New Roman,serif" font-size="14.00">1</text>
</g>
<!-- 2&#45;&gt;3 -->
<g id="edge2" class="edge"><title>2&#45;&gt;3</title>
<path fill="none" stroke="black" d="M33.6356,-275.411C36.9134,-267.216 40.9442,-257.14 44.6181,-247.955"/>
<polygon fill="black" stroke="black" points="47.9477,-249.055 48.412,-238.47 41.4484,-246.455 47.9477,-249.055"/>
</g>
<!-- 3&#45;&gt;0 -->
<g id="edge4" class="edge"><title>3&#45;&gt;0</title>
<path fill="none" stroke="black" d="M55.1671,-202.666C55.5326,-164.738 56.4023,-74.5078 56.7979,-33.4679"/>
<polygon fill="black" stroke="black" points="60.2994,-33.3146 56.8961,-23.2813 53.2998,-33.247 60.2994,-33.3146"/>
</g>
<!-- 4 -->
<g id="node5" class="node"><title>4</title>
<ellipse fill="none" stroke="black" cx="93" cy="-149" rx="27" ry="18"/>
<text text-anchor="middle" x="93" y="-145.3" font-family="Times New Roman,serif" font-size="14.00">2</text>
</g>
<!-- 3&#45;&gt;4 -->
<g id="edge3" class="edge"><title>3&#45;&gt;4</title>
<path fill="none" stroke="black" stroke-dasharray="1,5" d="M63.8135,-203.765C68.4177,-195.283 74.155,-184.714 79.3214,-175.197"/>
<polygon fill="black" stroke="black" points="82.5393,-176.606 84.2343,-166.147 76.3874,-173.266 82.5393,-176.606"/>
</g>
<!-- 4&#45;&gt;0 -->
<g id="edge6" class="edge"><title>4&#45;&gt;0</title>
<path fill="none" stroke="black" d="M88.5134,-131.113C81.9201,-106.296 69.6262,-60.0238 62.4988,-33.197"/>
<polygon fill="black" stroke="black" points="65.826,-32.089 59.8755,-23.323 59.0606,-33.8864 65.826,-32.089"/>
</g>
<!-- 5 -->
<g id="node6" class="node"><title>5</title>
<ellipse fill="none" stroke="black" cx="131" cy="-77" rx="27" ry="18"/>
<text text-anchor="middle" x="131" y="-73.3" font-family="Times New Roman,serif" font-size="14.00">3</text>
</g>
<!-- 4&#45;&gt;5 -->
<g id="edge5" class="edge"><title>4&#45;&gt;5</title>
<path fill="none" stroke="black" stroke-dasharray="1,5" d="M101.813,-131.765C106.418,-123.283 112.155,-112.714 117.321,-103.197"/>
<polygon fill="black" stroke="black" points="120.539,-104.606 122.234,-94.1473 114.387,-101.266 120.539,-104.606"/>
</g>
<!-- 5&#45;&gt;0 -->
<g id="edge7" class="edge"><title>5&#45;&gt;0</title>
<path fill="none" stroke="black" stroke-dasharray="1,5" d="M114.943,-62.2214C103.615,-52.5005 88.381,-39.4283 76.3765,-29.1272"/>
<polygon fill="black" stroke="black" points="78.5376,-26.3696 68.6694,-22.5136 73.9791,-31.6819 78.5376,-26.3696"/>
</g>
<!-- 5&#45;&gt;1 -->
<g id="edge8" class="edge"><title>5&#45;&gt;1</title>
<path fill="none" stroke="black" d="M131,-58.9832C131,-51.1157 131,-41.6973 131,-33.4019"/>
<polygon fill="black" stroke="black" points="134.5,-33.3686 131,-23.3687 127.5,-33.3687 134.5,-33.3686"/>
</g>
</g>
</svg>
