<?xml version="1.0" encoding="UTF-8" standalone="no"?>
<!DOCTYPE svg PUBLIC "-//W3C//DTD SVG 1.1//EN"
 "http://www.w3.org/Graphics/SVG/1.1/DTD/svg11.dtd">
<!-- Generated by graphviz version 2.38.0 (20140413.2041)
 -->
<!-- Title: G Pages: 1 -->
<svg width="120pt" height="203pt"
 viewBox="0.00 0.00 120.00 203.00" xmlns="http://www.w3.org/2000/svg" xmlns:xlink="http://www.w3.org/1999/xlink">
<g id="graph0" class="graph" transform="scale(1 1) rotate(0) translate(4 199)">
<title>G</title>
<polygon fill="white" stroke="none" points="-4,4 -4,-199 116,-199 116,4 -4,4"/>
<!-- s0 -->
<g id="node1" class="node"><title>s0</title>
<ellipse fill="none" stroke="black" cx="40" cy="-162" rx="27" ry="18"/>
<text text-anchor="middle" x="40" y="-158.3" font-family="Times New Roman,serif" font-size="14.00">p q </text>
<text text-anchor="middle" x="6.5" y="-183.8" font-family="Times New Roman,serif" font-size="14.00">s0</text>
</g>
<!-- s1 -->
<g id="node2" class="node"><title>s1</title>
<ellipse fill="none" stroke="black" cx="40" cy="-90" rx="27" ry="18"/>
<text text-anchor="middle" x="40" y="-86.3" font-family="Times New Roman,serif" font-size="14.00">q r </text>
<text text-anchor="middle" x="6.5" y="-111.8" font-family="Times New Roman,serif" font-size="14.00">s1</text>
</g>
<!-- s0&#45;&gt;s1 -->
<g id="edge1" class="edge"><title>s0&#45;&gt;s1</title>
<path fill="none" stroke="black" d="M34.1601,-144.411C33.2975,-136.507 33.0481,-126.852 33.4119,-117.935"/>
<polygon fill="black" stroke="black" points="36.9033,-118.179 34.1206,-107.956 29.9209,-117.683 36.9033,-118.179"/>
</g>
<!-- s2 -->
<g id="node3" class="node"><title>s2</title>
<ellipse fill="none" stroke="black" cx="67" cy="-18" rx="27" ry="18"/>
<text text-anchor="middle" x="67" y="-14.3" font-family="Times New Roman,serif" font-size="14.00">r </text>
<text text-anchor="middle" x="33.5" y="-39.8" font-family="Times New Roman,serif" font-size="14.00">s2</text>
</g>
<!-- s0&#45;&gt;s2 -->
<g id="edge2" class="edge"><title>s0&#45;&gt;s2</title>
<path fill="none" stroke="black" d="M53.7504,-146.069C61.9608,-136.1 71.619,-122.247 76,-108 82.2579,-87.6495 79.2323,-63.5715 75.0715,-45.5945"/>
<polygon fill="black" stroke="black" points="78.4307,-44.6036 72.5521,-35.7893 71.6509,-46.3457 78.4307,-44.6036"/>
</g>
<!-- s1&#45;&gt;s0 -->
<g id="edge3" class="edge"><title>s1&#45;&gt;s0</title>
<path fill="none" stroke="black" d="M45.8794,-107.956C46.7139,-115.827 46.9485,-125.374 46.5831,-134.187"/>
<polygon fill="black" stroke="black" points="43.0742,-134.184 45.8399,-144.411 50.0558,-134.691 43.0742,-134.184"/>
</g>
<!-- s1&#45;&gt;s2 -->
<g id="edge4" class="edge"><title>s1&#45;&gt;s2</title>
<path fill="none" stroke="black" d="M46.3986,-72.411C49.5136,-64.3352 53.3337,-54.4312 56.8346,-45.3547"/>
<polygon fill="black" stroke="black" points="60.1265,-46.5458 60.4597,-35.9562 53.5955,-44.0267 60.1265,-46.5458"/>
</g>
<!-- s2&#45;&gt;s2 -->
<g id="edge5" class="edge"><title>s2&#45;&gt;s2</title>
<path fill="none" stroke="black" d="M86.895,-30.4321C99.688,-33.6753 112,-29.5313 112,-18 112,-9.62183 105.501,-5.14331 97.0395,-4.56444"/>
<polygon fill="black" stroke="black" points="96.5019,-1.10045 86.895,-5.56787 97.191,-8.06645 96.5019,-1.10045"/>
</g>
</g>
</svg>
