<?xml version="1.0" encoding="UTF-8" standalone="no"?>
<!DOCTYPE svg PUBLIC "-//W3C//DTD SVG 1.1//EN"
 "http://www.w3.org/Graphics/SVG/1.1/DTD/svg11.dtd">
<!-- Generated by graphviz version 2.38.0 (20140413.2041)
 -->
<!-- Title: world Pages: 1 -->
<svg width="1134pt" height="777pt"
 viewBox="0.00 0.00 1133.50 777.38" xmlns="http://www.w3.org/2000/svg" xmlns:xlink="http://www.w3.org/1999/xlink">
<g id="graph0" class="graph" transform="scale(1 1) rotate(0) translate(36 741.379)">
<title>world</title>
<polygon fill="#2e3e56" stroke="none" points="-36,36 -36,-741.379 1097.5,-741.379 1097.5,36 -36,36"/>
<!-- S35 -->
<g id="node1" class="node"><title>S35</title>
<g id="a_node1"><a xlink:title="Go S35">
<ellipse fill="#8eabd9" stroke="#8eabd9" stroke-width="3" cx="520" cy="-683.879" rx="21.5" ry="21.5"/>
</a>
</g>
</g>
<!-- 43 -->
<g id="node7" class="node"><title>43</title>
<ellipse fill="#a5cf80" stroke="#a5cf80" stroke-width="3" cx="552" cy="-604.879" rx="21.5" ry="21.5"/>
</g>
<!-- S35&#45;&gt;43 -->
<g id="edge7" class="edge"><title>S35&#45;&gt;43</title>
<path fill="none" stroke="#fcfcfc" stroke-width="2" d="M527.91,-663.846C531.602,-654.961 536.075,-644.199 540.159,-634.372"/>
<polygon fill="#fcfcfc" stroke="#fcfcfc" stroke-width="2" points="543.464,-635.538 544.07,-624.961 537,-632.852 543.464,-635.538"/>
</g>
<!-- 36 -->
<g id="node19" class="node"><title>36</title>
<ellipse fill="#edad56" stroke="#edad56" stroke-width="3" cx="489" cy="-604.879" rx="21.5" ry="21.5"/>
</g>
<!-- S35&#45;&gt;36 -->
<g id="edge8" class="edge"><title>S35&#45;&gt;36</title>
<path fill="none" stroke="#fcfcfc" stroke-width="2" d="M512.177,-663.449C508.626,-654.628 504.355,-644.019 500.452,-634.326"/>
<polygon fill="#fcfcfc" stroke="#fcfcfc" stroke-width="2" points="503.694,-633.006 496.713,-625.037 497.201,-635.62 503.694,-633.006"/>
</g>
<!-- 23 -->
<g id="node2" class="node"><title>23</title>
<g id="a_node2"><a xlink:title="Go 23">
<polygon fill="#edad56" stroke="#edad56" stroke-width="3" points="366.5,-185.062 345,-197.5 323.5,-185.062 323.52,-164.938 366.48,-164.938 366.5,-185.062"/>
</a>
</g>
</g>
<!-- T1 -->
<g id="node3" class="node"><title>T1</title>
<g id="a_node3"><a xlink:title="Go T1">
<polygon fill="#9362a8" stroke="#9362a8" stroke-width="3" points="228.5,-118.5 185.5,-118.5 185.5,-82.5 228.5,-82.5 228.5,-118.5"/>
</a>
</g>
</g>
<!-- 23&#45;&gt;T1 -->
<g id="edge70" class="edge"><title>23&#45;&gt;T1</title>
<path fill="none" stroke="#fcfcfc" stroke-width="2" d="M323.438,-166.469C300.483,-153.661 263.951,-133.277 237.932,-118.759"/>
<polygon fill="#fcfcfc" stroke="#fcfcfc" stroke-width="2" points="239.305,-115.517 228.867,-113.701 235.894,-121.63 239.305,-115.517"/>
</g>
<!-- T24 -->
<g id="node25" class="node"><title>T24</title>
<ellipse fill="#edad56" stroke="#edad56" stroke-width="3" cx="878" cy="-100.5" rx="21.5" ry="21.5"/>
</g>
<!-- 23&#45;&gt;T24 -->
<g id="edge69" class="edge"><title>23&#45;&gt;T24</title>
<path fill="none" stroke="#fcfcfc" stroke-width="2" d="M361.968,-164.813C366.032,-162.144 370.503,-159.662 375,-158 513.386,-106.848 558.409,-138.681 705,-122 754.565,-116.36 812.075,-109.478 846.718,-105.295"/>
<polygon fill="#fcfcfc" stroke="#fcfcfc" stroke-width="2" points="847.193,-108.763 856.701,-104.088 846.353,-101.814 847.193,-108.763"/>
</g>
<!-- T99 -->
<g id="node4" class="node"><title>T99</title>
<g id="a_node4"><a xlink:title="Go T1">
<polygon fill="#9362a8" stroke="#9362a8" stroke-width="3" points="1061.5,-701.879 1018.5,-701.879 1018.5,-665.879 1061.5,-665.879 1061.5,-701.879"/>
</a>
</g>
</g>
<!-- P4 -->
<g id="node5" class="node"><title>P4</title>
<g id="a_node5"><a xlink:title="Go P4">
<ellipse fill="#f2688d" stroke="#f2688d" stroke-width="3" cx="675" cy="-100.5" rx="21.5" ry="18"/>
</a>
</g>
</g>
<!-- T30 -->
<g id="node6" class="node"><title>T30</title>
<g id="a_node6"><a xlink:title="Go T30">
<ellipse fill="#ea555b" stroke="#ea555b" stroke-width="3" cx="675" cy="-179.5" rx="21.5" ry="21.5"/>
</a>
</g>
</g>
<!-- T30&#45;&gt;P4 -->
<g id="edge1" class="edge"><title>T30&#45;&gt;P4</title>
<path fill="none" stroke="#fcfcfc" stroke-width="2" d="M675,-157.865C675,-148.932 675,-138.35 675,-128.781"/>
<polygon fill="#fcfcfc" stroke="#fcfcfc" stroke-width="2" points="678.5,-128.55 675,-118.55 671.5,-128.55 678.5,-128.55"/>
</g>
<!-- 40 -->
<g id="node8" class="node"><title>40</title>
<ellipse fill="#a5cf80" stroke="#a5cf80" stroke-width="3" cx="552" cy="-510.69" rx="36.8802" ry="36.8802"/>
<text text-anchor="middle" x="552" y="-506.99" font-family="Times New Roman,serif" font-size="14.00">Another</text>
</g>
<!-- 43&#45;&gt;40 -->
<g id="edge45" class="edge"><title>43&#45;&gt;40</title>
<path fill="none" stroke="#fcfcfc" stroke-width="2" d="M552,-582.96C552,-575.476 552,-566.715 552,-557.946"/>
<polygon fill="#fcfcfc" stroke="#fcfcfc" stroke-width="2" points="555.5,-557.724 552,-547.724 548.5,-557.725 555.5,-557.724"/>
</g>
<!-- 38 -->
<g id="node42" class="node"><title>38</title>
<ellipse fill="#edad56" stroke="#edad56" stroke-width="3" cx="628" cy="-510.69" rx="21.5" ry="21.5"/>
</g>
<!-- 43&#45;&gt;38 -->
<g id="edge44" class="edge"><title>43&#45;&gt;38</title>
<path fill="none" stroke="#fcfcfc" stroke-width="2" d="M565.238,-587.821C577.044,-573.5 594.499,-552.327 608.006,-535.943"/>
<polygon fill="#fcfcfc" stroke="#fcfcfc" stroke-width="2" points="610.998,-537.816 614.659,-527.873 605.597,-533.363 610.998,-537.816"/>
</g>
<!-- 19 -->
<g id="node10" class="node"><title>19</title>
<ellipse fill="#ab6d16" stroke="#ab6d16" stroke-width="3" cx="276" cy="-416.5" rx="21.5" ry="21.5"/>
</g>
<!-- 40&#45;&gt;19 -->
<g id="edge52" class="edge"><title>40&#45;&gt;19</title>
<path fill="none" stroke="#fcfcfc" stroke-width="2" d="M523.866,-486.828C516.746,-481.959 508.875,-477.298 501,-474 419.709,-439.958 387.48,-471.588 306,-438 304.396,-437.339 302.791,-436.583 301.203,-435.761"/>
<polygon fill="#fcfcfc" stroke="#fcfcfc" stroke-width="2" points="302.806,-432.642 292.426,-430.518 299.216,-438.651 302.806,-432.642"/>
</g>
<!-- 28 -->
<g id="node9" class="node"><title>28</title>
<ellipse fill="#ab6d16" stroke="#ab6d16" stroke-width="3" cx="436" cy="-337.5" rx="21.5" ry="21.5"/>
</g>
<!-- 29 -->
<g id="node38" class="node"><title>29</title>
<ellipse fill="#edad56" stroke="#edad56" stroke-width="3" cx="604" cy="-258.5" rx="21.5" ry="21.5"/>
</g>
<!-- 28&#45;&gt;29 -->
<g id="edge62" class="edge"><title>28&#45;&gt;29</title>
<path fill="none" stroke="#fcfcfc" stroke-width="2" d="M454.097,-325.664C459.758,-322.419 466.074,-318.944 472,-316 506.445,-298.89 547.318,-281.881 574.359,-271.066"/>
<polygon fill="#fcfcfc" stroke="#fcfcfc" stroke-width="2" points="576,-274.181 584.003,-267.238 573.417,-267.675 576,-274.181"/>
</g>
<!-- 19&#45;&gt;28 -->
<g id="edge54" class="edge"><title>19&#45;&gt;28</title>
<path fill="none" stroke="#fcfcfc" stroke-width="2" d="M292.993,-402.808C297.127,-400.027 301.622,-397.246 306,-395 347.655,-373.625 363.184,-380.058 405,-359 406.772,-358.108 408.566,-357.134 410.35,-356.111"/>
<polygon fill="#fcfcfc" stroke="#fcfcfc" stroke-width="2" points="412.382,-358.97 419.053,-350.739 408.705,-353.013 412.382,-358.97"/>
</g>
<!-- 21 -->
<g id="node44" class="node"><title>21</title>
<ellipse fill="#edad56" stroke="#edad56" stroke-width="3" cx="314" cy="-337.5" rx="21.5" ry="21.5"/>
</g>
<!-- 19&#45;&gt;21 -->
<g id="edge55" class="edge"><title>19&#45;&gt;21</title>
<path fill="none" stroke="#fcfcfc" stroke-width="2" d="M285.199,-396.86C289.693,-387.754 295.195,-376.605 300.181,-366.501"/>
<polygon fill="#fcfcfc" stroke="#fcfcfc" stroke-width="2" points="303.467,-367.751 304.754,-357.235 297.19,-364.653 303.467,-367.751"/>
</g>
<!-- 20 -->
<g id="node45" class="node"><title>20</title>
<ellipse fill="#edad56" stroke="#edad56" stroke-width="3" cx="138" cy="-337.5" rx="21.5" ry="21.5"/>
</g>
<!-- 19&#45;&gt;20 -->
<g id="edge56" class="edge"><title>19&#45;&gt;20</title>
<path fill="none" stroke="#fcfcfc" stroke-width="2" d="M257.389,-405.115C233.828,-391.969 193.034,-369.207 165.781,-354.001"/>
<polygon fill="#fcfcfc" stroke="#fcfcfc" stroke-width="2" points="167.195,-350.782 156.757,-348.966 163.784,-356.895 167.195,-350.782"/>
</g>
<!-- S8 -->
<g id="node11" class="node"><title>S8</title>
<ellipse fill="#edad56" stroke="#edad56" stroke-width="3" cx="877" cy="-683.879" rx="21.5" ry="21.5"/>
</g>
<!-- 9 -->
<g id="node12" class="node"><title>9</title>
<ellipse fill="#edad56" stroke="#edad56" stroke-width="3" cx="877" cy="-604.879" rx="21.5" ry="21.5"/>
</g>
<!-- S8&#45;&gt;9 -->
<g id="edge2" class="edge"><title>S8&#45;&gt;9</title>
<path fill="none" stroke="#fcfcfc" stroke-width="2" d="M877,-662.245C877,-654.39 877,-645.261 877,-636.667"/>
<polygon fill="#fcfcfc" stroke="#fcfcfc" stroke-width="2" points="880.5,-636.571 877,-626.571 873.5,-636.571 880.5,-636.571"/>
</g>
<!-- 9&#45;&gt;T1 -->
<g id="edge12" class="edge"><title>9&#45;&gt;T1</title>
<path fill="none" stroke="#fcfcfc" stroke-width="2" d="M894.767,-592.535C909.264,-582.386 929.21,-566.228 941,-547.379 972.766,-496.596 977,-477.401 977,-417.5 977,-417.5 977,-417.5 977,-257.5 977,-128.777 830.28,-187.575 705,-158 615.405,-136.849 333.697,-112.063 238.665,-104.101"/>
<polygon fill="#fcfcfc" stroke="#fcfcfc" stroke-width="2" points="238.787,-100.599 228.531,-103.256 238.206,-107.575 238.787,-100.599"/>
</g>
<!-- 42 -->
<g id="node23" class="node"><title>42</title>
<ellipse fill="#edad56" stroke="#edad56" stroke-width="3" cx="789" cy="-510.69" rx="21.5" ry="21.5"/>
</g>
<!-- 9&#45;&gt;42 -->
<g id="edge11" class="edge"><title>9&#45;&gt;42</title>
<path fill="none" stroke="#fcfcfc" stroke-width="2" d="M862.469,-588.656C848.329,-573.843 826.676,-551.159 810.535,-534.249"/>
<polygon fill="#fcfcfc" stroke="#fcfcfc" stroke-width="2" points="812.99,-531.752 803.553,-526.935 807.926,-536.586 812.99,-531.752"/>
</g>
<!-- S24 -->
<g id="node13" class="node"><title>S24</title>
<ellipse fill="#edad56" stroke="#edad56" stroke-width="3" cx="979" cy="-683.879" rx="21.5" ry="21.5"/>
</g>
<!-- 25 -->
<g id="node14" class="node"><title>25</title>
<ellipse fill="#edad56" stroke="#edad56" stroke-width="3" cx="762" cy="-604.879" rx="21.5" ry="21.5"/>
</g>
<!-- S24&#45;&gt;25 -->
<g id="edge3" class="edge"><title>S24&#45;&gt;25</title>
<path fill="none" stroke="#fcfcfc" stroke-width="2" d="M958.974,-675.773C920.541,-662.136 836.283,-632.238 791.439,-616.325"/>
<polygon fill="#fcfcfc" stroke="#fcfcfc" stroke-width="2" points="792.572,-613.014 781.977,-612.968 790.231,-619.611 792.572,-613.014"/>
</g>
<!-- 27 -->
<g id="node15" class="node"><title>27</title>
<ellipse fill="#edad56" stroke="#edad56" stroke-width="3" cx="1027" cy="-416.5" rx="21.5" ry="21.5"/>
</g>
<!-- S24&#45;&gt;27 -->
<g id="edge4" class="edge"><title>S24&#45;&gt;27</title>
<path fill="none" stroke="#fcfcfc" stroke-width="2" d="M982.687,-662.496C991.063,-616.185 1011.57,-502.834 1021.47,-448.084"/>
<polygon fill="#fcfcfc" stroke="#fcfcfc" stroke-width="2" points="1024.96,-448.416 1023.3,-437.953 1018.08,-447.17 1024.96,-448.416"/>
</g>
<!-- 25&#45;&gt;T1 -->
<!-- weaklink -->
<g id="edge13" class="edge"><title>25&#45;&gt;T1</title>
<path fill="none" stroke="#445773" stroke-width="2" d="M779.639,-592.36C793.255,-582.324 811.066,-566.414 819,-547.379 831.547,-517.276 839.303,-499.522 819,-474 774.702,-418.315 725.624,-471.785 663,-438 638.654,-424.866 643.088,-406.654 618,-395 550.096,-363.457 341.222,-406.077 283,-359 246.746,-329.686 220.743,-188.944 211.109,-128.823"/>
<polygon fill="#445773" stroke="#445773" stroke-width="2" points="214.51,-127.917 209.502,-118.581 207.594,-129.002 214.51,-127.917"/>
</g>
<!-- 26 -->
<g id="node24" class="node"><title>26</title>
<ellipse fill="#edad56" stroke="#edad56" stroke-width="3" cx="689" cy="-510.69" rx="21.5" ry="21.5"/>
</g>
<!-- 25&#45;&gt;26 -->
<g id="edge14" class="edge"><title>25&#45;&gt;26</title>
<path fill="none" stroke="#fcfcfc" stroke-width="2" d="M748.949,-587.398C737.634,-573.108 721.105,-552.234 708.268,-536.022"/>
<polygon fill="#fcfcfc" stroke="#fcfcfc" stroke-width="2" points="710.89,-533.696 701.938,-528.029 705.402,-538.041 710.89,-533.696"/>
</g>
<!-- 27&#45;&gt;T24 -->
<g id="edge15" class="edge"><title>27&#45;&gt;T24</title>
<path fill="none" stroke="#fcfcfc" stroke-width="2" d="M1030.06,-395.153C1035.94,-348.402 1043.94,-231.684 991,-158 971.454,-130.795 935.011,-115.941 908.789,-108.384"/>
<polygon fill="#fcfcfc" stroke="#fcfcfc" stroke-width="2" points="909.515,-104.955 898.95,-105.748 907.704,-111.717 909.515,-104.955"/>
</g>
<!-- S1 -->
<g id="node16" class="node"><title>S1</title>
<ellipse fill="#edad56" stroke="#edad56" stroke-width="3" cx="207" cy="-683.879" rx="21.5" ry="21.5"/>
</g>
<!-- 2 -->
<g id="node17" class="node"><title>2</title>
<ellipse fill="#edad56" stroke="#edad56" stroke-width="3" cx="176" cy="-604.879" rx="21.5" ry="21.5"/>
</g>
<!-- S1&#45;&gt;2 -->
<g id="edge5" class="edge"><title>S1&#45;&gt;2</title>
<path fill="none" stroke="#fcfcfc" stroke-width="2" d="M199.177,-663.449C195.626,-654.628 191.355,-644.019 187.452,-634.326"/>
<polygon fill="#fcfcfc" stroke="#fcfcfc" stroke-width="2" points="190.694,-633.006 183.713,-625.037 184.201,-635.62 190.694,-633.006"/>
</g>
<!-- 10 -->
<g id="node18" class="node"><title>10</title>
<ellipse fill="#edad56" stroke="#edad56" stroke-width="3" cx="237" cy="-604.879" rx="21.5" ry="21.5"/>
</g>
<!-- S1&#45;&gt;10 -->
<g id="edge6" class="edge"><title>S1&#45;&gt;10</title>
<path fill="none" stroke="#fcfcfc" stroke-width="2" d="M214.57,-663.449C217.946,-654.786 221.992,-644.399 225.714,-634.847"/>
<polygon fill="#fcfcfc" stroke="#fcfcfc" stroke-width="2" points="229.063,-635.892 229.432,-625.303 222.541,-633.351 229.063,-635.892"/>
</g>
<!-- 2&#45;&gt;T1 -->
<g id="edge16" class="edge"><title>2&#45;&gt;T1</title>
<path fill="none" stroke="#fcfcfc" stroke-width="2" d="M154.989,-600.159C126.482,-594.048 75.7097,-579.232 46,-547.379 4.2312,-502.597 0,-478.738 0,-417.5 0,-417.5 0,-417.5 0,-257.5 0,-170.687 117.552,-126.125 175.486,-109.435"/>
<polygon fill="#fcfcfc" stroke="#fcfcfc" stroke-width="2" points="176.54,-112.775 185.239,-106.727 174.667,-106.03 176.54,-112.775"/>
</g>
<!-- 3 -->
<g id="node26" class="node"><title>3</title>
<ellipse fill="#edad56" stroke="#edad56" stroke-width="3" cx="337" cy="-510.69" rx="21.5" ry="21.5"/>
</g>
<!-- 2&#45;&gt;3 -->
<g id="edge17" class="edge"><title>2&#45;&gt;3</title>
<path fill="none" stroke="#fcfcfc" stroke-width="2" d="M193.015,-591.23C197.148,-588.447 201.638,-585.655 206,-583.379 246.032,-562.495 263.027,-571.807 301,-547.379 306.311,-543.963 311.472,-539.658 316.151,-535.231"/>
<polygon fill="#fcfcfc" stroke="#fcfcfc" stroke-width="2" points="318.961,-537.369 323.511,-527.801 313.987,-532.442 318.961,-537.369"/>
</g>
<!-- 16 -->
<g id="node27" class="node"><title>16</title>
<ellipse fill="#edad56" stroke="#edad56" stroke-width="3" cx="50" cy="-416.5" rx="21.5" ry="21.5"/>
</g>
<!-- 2&#45;&gt;16 -->
<g id="edge18" class="edge"><title>2&#45;&gt;16</title>
<path fill="none" stroke="#fcfcfc" stroke-width="2" d="M155.171,-598.226C131.586,-590.689 93.8666,-574.983 74,-547.379 53.0958,-518.334 48.7595,-476.434 48.5597,-448.147"/>
<polygon fill="#fcfcfc" stroke="#fcfcfc" stroke-width="2" points="52.0606,-448.061 48.6597,-438.027 45.061,-447.992 52.0606,-448.061"/>
</g>
<!-- 17 -->
<g id="node28" class="node"><title>17</title>
<ellipse fill="#edad56" stroke="#edad56" stroke-width="3" cx="176" cy="-510.69" rx="21.5" ry="21.5"/>
</g>
<!-- 2&#45;&gt;17 -->
<g id="edge19" class="edge"><title>2&#45;&gt;17</title>
<path fill="none" stroke="#fcfcfc" stroke-width="2" d="M176,-582.96C176,-570.971 176,-555.705 176,-542.379"/>
<polygon fill="#fcfcfc" stroke="#fcfcfc" stroke-width="2" points="179.5,-542.208 176,-532.209 172.5,-542.209 179.5,-542.208"/>
</g>
<!-- 18 -->
<g id="node29" class="node"><title>18</title>
<ellipse fill="#edad56" stroke="#edad56" stroke-width="3" cx="337" cy="-416.5" rx="21.5" ry="21.5"/>
</g>
<!-- 2&#45;&gt;18 -->
<g id="edge20" class="edge"><title>2&#45;&gt;18</title>
<path fill="none" stroke="#fcfcfc" stroke-width="2" d="M193.32,-591.758C197.441,-588.953 201.848,-586.019 206,-583.379 232.566,-566.489 245.242,-570.13 267,-547.379 292.526,-520.687 288.45,-506.497 306,-474 311.184,-464.401 316.915,-453.919 322.026,-444.618"/>
<polygon fill="#fcfcfc" stroke="#fcfcfc" stroke-width="2" points="325.131,-446.235 326.886,-435.787 318.998,-442.86 325.131,-446.235"/>
</g>
<!-- 10&#45;&gt;T1 -->
<g id="edge21" class="edge"><title>10&#45;&gt;T1</title>
<path fill="none" stroke="#fcfcfc" stroke-width="2" d="M219.396,-592.014C215.046,-589.144 210.377,-586.115 206,-583.379 179.307,-566.692 160.61,-574.717 145,-547.379 128.829,-519.058 141.786,-506.454 145,-474 150.136,-422.13 158.984,-410.338 168,-359 182.693,-275.337 196.824,-175.793 203.305,-128.732"/>
<polygon fill="#fcfcfc" stroke="#fcfcfc" stroke-width="2" points="206.787,-129.105 204.677,-118.722 199.852,-128.154 206.787,-129.105"/>
</g>
<!-- 11 -->
<g id="node30" class="node"><title>11</title>
<ellipse fill="#edad56" stroke="#edad56" stroke-width="3" cx="437" cy="-510.69" rx="21.5" ry="21.5"/>
</g>
<!-- 10&#45;&gt;11 -->
<g id="edge22" class="edge"><title>10&#45;&gt;11</title>
<path fill="none" stroke="#fcfcfc" stroke-width="2" d="M257.986,-599.817C290.507,-592.85 354.204,-576.485 401,-547.379 406.362,-544.044 411.546,-539.775 416.231,-535.357"/>
<polygon fill="#fcfcfc" stroke="#fcfcfc" stroke-width="2" points="419.043,-537.492 423.588,-527.921 414.066,-532.569 419.043,-537.492"/>
</g>
<!-- 14 -->
<g id="node31" class="node"><title>14</title>
<ellipse fill="#edad56" stroke="#edad56" stroke-width="3" cx="111" cy="-416.5" rx="21.5" ry="21.5"/>
</g>
<!-- 10&#45;&gt;14 -->
<g id="edge23" class="edge"><title>10&#45;&gt;14</title>
<path fill="none" stroke="#fcfcfc" stroke-width="2" d="M219.699,-591.481C215.339,-588.627 210.59,-585.74 206,-583.379 166.216,-562.919 137.495,-584.14 112,-547.379 91.6278,-518.005 96.1036,-475.204 102.465,-446.871"/>
<polygon fill="#fcfcfc" stroke="#fcfcfc" stroke-width="2" points="105.869,-447.685 104.851,-437.139 99.0705,-446.018 105.869,-447.685"/>
</g>
<!-- 13 -->
<g id="node32" class="node"><title>13</title>
<ellipse fill="#edad56" stroke="#edad56" stroke-width="3" cx="237" cy="-510.69" rx="21.5" ry="21.5"/>
</g>
<!-- 10&#45;&gt;13 -->
<g id="edge24" class="edge"><title>10&#45;&gt;13</title>
<path fill="none" stroke="#fcfcfc" stroke-width="2" d="M237,-582.96C237,-570.971 237,-555.705 237,-542.379"/>
<polygon fill="#fcfcfc" stroke="#fcfcfc" stroke-width="2" points="240.5,-542.208 237,-532.209 233.5,-542.209 240.5,-542.208"/>
</g>
<!-- 12 -->
<g id="node33" class="node"><title>12</title>
<ellipse fill="#edad56" stroke="#edad56" stroke-width="3" cx="574" cy="-337.5" rx="21.5" ry="21.5"/>
</g>
<!-- 10&#45;&gt;12 -->
<g id="edge25" class="edge"><title>10&#45;&gt;12</title>
<path fill="none" stroke="#fcfcfc" stroke-width="2" d="M257.834,-599.388C285.677,-592.459 335.195,-576.779 367,-547.379 394.121,-522.309 383.243,-503.089 406,-474 438.386,-432.604 452.909,-427.772 494,-395 511.498,-381.045 532.151,-366.504 548.089,-355.669"/>
<polygon fill="#fcfcfc" stroke="#fcfcfc" stroke-width="2" points="550.075,-358.551 556.409,-350.057 546.161,-352.747 550.075,-358.551"/>
</g>
<!-- 36&#45;&gt;19 -->
<g id="edge46" class="edge"><title>36&#45;&gt;19</title>
<path fill="none" stroke="#fcfcfc" stroke-width="2" d="M491.922,-583.278C494.713,-554.784 495.024,-503.526 467,-474 416.524,-420.818 373.254,-467.208 306,-438 304.409,-437.309 302.813,-436.53 301.233,-435.689"/>
<polygon fill="#fcfcfc" stroke="#fcfcfc" stroke-width="2" points="302.846,-432.575 292.478,-430.395 299.224,-438.565 302.846,-432.575"/>
</g>
<!-- S30 -->
<g id="node20" class="node"><title>S30</title>
<ellipse fill="#edad56" stroke="#edad56" stroke-width="3" cx="889" cy="-510.69" rx="21.5" ry="21.5"/>
</g>
<!-- 31 -->
<g id="node21" class="node"><title>31</title>
<ellipse fill="#edad56" stroke="#edad56" stroke-width="3" cx="375" cy="-337.5" rx="21.5" ry="21.5"/>
</g>
<!-- S30&#45;&gt;31 -->
<g id="edge9" class="edge"><title>S30&#45;&gt;31</title>
<path fill="none" stroke="#fcfcfc" stroke-width="2" d="M875.771,-493.15C869.524,-486.323 861.563,-478.882 853,-474 797.934,-442.608 771.425,-466.88 715,-438 688.304,-424.336 690.446,-407.086 663,-395 557.04,-348.342 512.982,-400.764 405,-359 403.382,-358.374 401.766,-357.646 400.169,-356.845"/>
<polygon fill="#fcfcfc" stroke="#fcfcfc" stroke-width="2" points="401.761,-353.721 391.368,-351.664 398.21,-359.754 401.761,-353.721"/>
</g>
<!-- 33 -->
<g id="node22" class="node"><title>33</title>
<ellipse fill="#edad56" stroke="#edad56" stroke-width="3" cx="746" cy="-416.5" rx="21.5" ry="21.5"/>
</g>
<!-- S30&#45;&gt;33 -->
<g id="edge10" class="edge"><title>S30&#45;&gt;33</title>
<path fill="none" stroke="#fcfcfc" stroke-width="2" d="M875.184,-494.055C868.828,-487.395 860.945,-479.835 853,-474 828.369,-455.911 797.18,-440.136 774.84,-429.886"/>
<polygon fill="#fcfcfc" stroke="#fcfcfc" stroke-width="2" points="776.109,-426.619 765.553,-425.709 773.237,-433.003 776.109,-426.619"/>
</g>
<!-- 31&#45;&gt;T1 -->
<g id="edge26" class="edge"><title>31&#45;&gt;T1</title>
<path fill="none" stroke="#fcfcfc" stroke-width="2" d="M357.396,-324.635C353.046,-321.764 348.377,-318.736 344,-316 317.307,-299.312 302.996,-304.314 283,-280 246.482,-235.596 264.162,-210.168 240,-158 235.274,-147.795 229.268,-137.034 223.679,-127.672"/>
<polygon fill="#fcfcfc" stroke="#fcfcfc" stroke-width="2" points="226.49,-125.56 218.291,-118.849 220.516,-129.208 226.49,-125.56"/>
</g>
<!-- 32 -->
<g id="node34" class="node"><title>32</title>
<ellipse fill="#edad56" stroke="#edad56" stroke-width="3" cx="375" cy="-258.5" rx="21.5" ry="21.5"/>
</g>
<!-- 31&#45;&gt;32 -->
<g id="edge27" class="edge"><title>31&#45;&gt;32</title>
<path fill="none" stroke="#fcfcfc" stroke-width="2" d="M375,-315.865C375,-308.011 375,-298.882 375,-290.288"/>
<polygon fill="#fcfcfc" stroke="#fcfcfc" stroke-width="2" points="378.5,-290.192 375,-280.192 371.5,-290.192 378.5,-290.192"/>
</g>
<!-- 33&#45;&gt;T30 -->
<g id="edge28" class="edge"><title>33&#45;&gt;T30</title>
<path fill="none" stroke="#fcfcfc" stroke-width="2" d="M742.887,-395.069C739.565,-374.791 733.72,-342.931 726,-316 715.143,-278.126 698.461,-235.831 687.157,-208.73"/>
<polygon fill="#fcfcfc" stroke="#fcfcfc" stroke-width="2" points="690.364,-207.326 683.257,-199.468 683.913,-210.043 690.364,-207.326"/>
</g>
<!-- 34 -->
<g id="node35" class="node"><title>34</title>
<ellipse fill="#edad56" stroke="#edad56" stroke-width="3" cx="635" cy="-337.5" rx="21.5" ry="21.5"/>
</g>
<!-- 33&#45;&gt;34 -->
<g id="edge29" class="edge"><title>33&#45;&gt;34</title>
<path fill="none" stroke="#fcfcfc" stroke-width="2" d="M728.656,-403.469C710.41,-390.811 681.499,-370.756 660.622,-356.274"/>
<polygon fill="#fcfcfc" stroke="#fcfcfc" stroke-width="2" points="662.434,-353.271 652.222,-350.447 658.444,-359.022 662.434,-353.271"/>
</g>
<!-- 4 -->
<g id="node36" class="node"><title>4</title>
<ellipse fill="#edad56" stroke="#edad56" stroke-width="3" cx="525" cy="-416.5" rx="21.5" ry="21.5"/>
</g>
<!-- 42&#45;&gt;4 -->
<g id="edge30" class="edge"><title>42&#45;&gt;4</title>
<path fill="none" stroke="#fcfcfc" stroke-width="2" d="M770.854,-498.824C757.048,-490.962 737.357,-480.599 719,-474 649.592,-449.05 625.099,-466.328 557,-438 554.921,-437.135 552.828,-436.137 550.761,-435.056"/>
<polygon fill="#fcfcfc" stroke="#fcfcfc" stroke-width="2" points="552.397,-431.958 541.995,-429.944 548.871,-438.005 552.397,-431.958"/>
</g>
<!-- 26&#45;&gt;4 -->
<g id="edge31" class="edge"><title>26&#45;&gt;4</title>
<path fill="none" stroke="#fcfcfc" stroke-width="2" d="M676.944,-492.341C671.735,-485.867 665.185,-478.905 658,-474 618.642,-447.131 599.784,-458.989 557,-438 554.979,-437.008 552.928,-435.917 550.891,-434.77"/>
<polygon fill="#fcfcfc" stroke="#fcfcfc" stroke-width="2" points="552.558,-431.688 542.187,-429.521 548.943,-437.682 552.558,-431.688"/>
</g>
<!-- 3&#45;&gt;4 -->
<g id="edge32" class="edge"><title>3&#45;&gt;4</title>
<path fill="none" stroke="#fcfcfc" stroke-width="2" d="M355.655,-499.822C369.489,-492.558 388.842,-482.507 406,-474 436.614,-458.82 472.03,-442.113 496.213,-430.833"/>
<polygon fill="#fcfcfc" stroke="#fcfcfc" stroke-width="2" points="497.938,-433.89 505.527,-426.497 494.984,-427.544 497.938,-433.89"/>
</g>
<!-- 15 -->
<g id="node37" class="node"><title>15</title>
<ellipse fill="#edad56" stroke="#edad56" stroke-width="3" cx="138" cy="-258.5" rx="21.5" ry="21.5"/>
</g>
<!-- 16&#45;&gt;15 -->
<g id="edge33" class="edge"><title>16&#45;&gt;15</title>
<path fill="none" stroke="#fcfcfc" stroke-width="2" d="M58.4102,-396.363C67.5893,-376.004 83.1093,-343.066 99,-316 105.191,-305.455 112.683,-294.288 119.44,-284.69"/>
<polygon fill="#fcfcfc" stroke="#fcfcfc" stroke-width="2" points="122.412,-286.552 125.38,-276.381 116.717,-282.481 122.412,-286.552"/>
</g>
<!-- 17&#45;&gt;19 -->
<g id="edge34" class="edge"><title>17&#45;&gt;19</title>
<path fill="none" stroke="#fcfcfc" stroke-width="2" d="M188.811,-493.117C193.91,-486.888 199.988,-479.893 206,-474 219.946,-460.329 236.97,-446.533 250.737,-435.996"/>
<polygon fill="#fcfcfc" stroke="#fcfcfc" stroke-width="2" points="252.958,-438.704 258.831,-429.886 248.741,-433.117 252.958,-438.704"/>
</g>
<!-- 18&#45;&gt;29 -->
<g id="edge35" class="edge"><title>18&#45;&gt;29</title>
<path fill="none" stroke="#fcfcfc" stroke-width="2" d="M355.035,-404.536C360.693,-401.285 367.023,-397.839 373,-395 413.034,-375.982 427.04,-380.133 466,-359 508.638,-335.872 553.362,-301.47 579.949,-279.777"/>
<polygon fill="#fcfcfc" stroke="#fcfcfc" stroke-width="2" points="582.426,-282.271 587.918,-273.21 577.975,-276.868 582.426,-282.271"/>
</g>
<!-- 11&#45;&gt;4 -->
<g id="edge36" class="edge"><title>11&#45;&gt;4</title>
<path fill="none" stroke="#fcfcfc" stroke-width="2" d="M451.531,-494.466C465.671,-479.654 487.324,-456.969 503.465,-440.06"/>
<polygon fill="#fcfcfc" stroke="#fcfcfc" stroke-width="2" points="506.074,-442.396 510.447,-432.746 501.01,-437.563 506.074,-442.396"/>
</g>
<!-- 14&#45;&gt;15 -->
<g id="edge37" class="edge"><title>14&#45;&gt;15</title>
<path fill="none" stroke="#fcfcfc" stroke-width="2" d="M106.837,-395.322C103.412,-374.963 100.132,-342.795 107,-316 109.75,-305.27 115.009,-294.39 120.426,-285.079"/>
<polygon fill="#fcfcfc" stroke="#fcfcfc" stroke-width="2" points="123.535,-286.705 125.807,-276.357 117.578,-283.029 123.535,-286.705"/>
</g>
<!-- 13&#45;&gt;19 -->
<g id="edge42" class="edge"><title>13&#45;&gt;19</title>
<path fill="none" stroke="#fcfcfc" stroke-width="2" d="M245.081,-490.588C250.519,-477.732 257.787,-460.552 263.91,-446.079"/>
<polygon fill="#fcfcfc" stroke="#fcfcfc" stroke-width="2" points="267.257,-447.151 267.93,-436.577 260.81,-444.423 267.257,-447.151"/>
</g>
<!-- 12&#45;&gt;29 -->
<g id="edge43" class="edge"><title>12&#45;&gt;29</title>
<path fill="none" stroke="#fcfcfc" stroke-width="2" d="M581.57,-317.07C584.946,-308.406 588.992,-298.02 592.714,-288.468"/>
<polygon fill="#fcfcfc" stroke="#fcfcfc" stroke-width="2" points="596.063,-289.513 596.432,-278.924 589.541,-286.971 596.063,-289.513"/>
</g>
<!-- 32&#45;&gt;23 -->
<g id="edge47" class="edge"><title>32&#45;&gt;23</title>
<path fill="none" stroke="#fcfcfc" stroke-width="2" d="M367.43,-238.07C363.39,-227.7 358.388,-214.862 354.133,-203.942"/>
<polygon fill="#fcfcfc" stroke="#fcfcfc" stroke-width="2" points="357.377,-202.625 350.485,-194.578 350.854,-205.167 357.377,-202.625"/>
</g>
<!-- 34&#45;&gt;29 -->
<g id="edge48" class="edge"><title>34&#45;&gt;29</title>
<path fill="none" stroke="#fcfcfc" stroke-width="2" d="M627.177,-317.07C623.626,-308.248 619.355,-297.64 615.452,-287.946"/>
<polygon fill="#fcfcfc" stroke="#fcfcfc" stroke-width="2" points="618.694,-286.627 611.713,-278.657 612.201,-289.241 618.694,-286.627"/>
</g>
<!-- 5 -->
<g id="node43" class="node"><title>5</title>
<ellipse fill="#edad56" stroke="#edad56" stroke-width="3" cx="452" cy="-258.5" rx="21.5" ry="21.5"/>
</g>
<!-- 4&#45;&gt;5 -->
<g id="edge53" class="edge"><title>4&#45;&gt;5</title>
<path fill="none" stroke="#fcfcfc" stroke-width="2" d="M516.194,-396.683C503.479,-369.51 479.885,-319.09 465.115,-287.527"/>
<polygon fill="#fcfcfc" stroke="#fcfcfc" stroke-width="2" points="468.245,-285.958 460.837,-278.384 461.905,-288.925 468.245,-285.958"/>
</g>
<!-- 15&#45;&gt;T1 -->
<g id="edge64" class="edge"><title>15&#45;&gt;T1</title>
<path fill="none" stroke="#fcfcfc" stroke-width="2" d="M144.012,-237.629C150.453,-217.234 161.459,-184.785 174,-158 178.769,-147.815 184.784,-137.058 190.369,-127.694"/>
<polygon fill="#fcfcfc" stroke="#fcfcfc" stroke-width="2" points="193.533,-129.229 195.748,-118.868 187.556,-125.586 193.533,-129.229"/>
</g>
<!-- 29&#45;&gt;T30 -->
<g id="edge67" class="edge"><title>29&#45;&gt;T30</title>
<path fill="none" stroke="#fcfcfc" stroke-width="2" d="M618.368,-241.918C628.636,-230.782 642.613,-215.624 654.112,-203.154"/>
<polygon fill="#fcfcfc" stroke="#fcfcfc" stroke-width="2" points="656.69,-205.52 660.896,-195.796 651.544,-200.775 656.69,-205.52"/>
</g>
<!-- 37 -->
<g id="node39" class="node"><title>37</title>
<ellipse fill="#edad56" stroke="#edad56" stroke-width="3" cx="682" cy="-604.879" rx="21.5" ry="21.5"/>
</g>
<!-- 37&#45;&gt;40 -->
<g id="edge38" class="edge"><title>37&#45;&gt;40</title>
<path fill="none" stroke="#fcfcfc" stroke-width="2" d="M664.124,-592.616C646.716,-581.505 619.646,-563.841 597,-547.379 594.172,-545.323 591.275,-543.161 588.38,-540.961"/>
<polygon fill="#fcfcfc" stroke="#fcfcfc" stroke-width="2" points="590.342,-538.054 580.288,-534.712 586.064,-543.594 590.342,-538.054"/>
</g>
<!-- 39 -->
<g id="node40" class="node"><title>39</title>
<ellipse fill="#edad56" stroke="#edad56" stroke-width="3" cx="588" cy="-416.5" rx="21.5" ry="21.5"/>
</g>
<!-- 37&#45;&gt;39 -->
<g id="edge39" class="edge"><title>37&#45;&gt;39</title>
<path fill="none" stroke="#fcfcfc" stroke-width="2" d="M695.763,-588.347C704.284,-577.651 714.442,-562.66 719,-547.379 728.322,-516.127 736.953,-501.227 719,-474 696.64,-440.091 672.282,-454.119 635,-438 629.242,-435.51 623.093,-432.838 617.204,-430.272"/>
<polygon fill="#fcfcfc" stroke="#fcfcfc" stroke-width="2" points="618.219,-426.897 607.654,-426.106 615.42,-433.313 618.219,-426.897"/>
</g>
<!-- 41 -->
<g id="node41" class="node"><title>41</title>
<ellipse fill="#edad56" stroke="#edad56" stroke-width="3" cx="696" cy="-337.5" rx="21.5" ry="21.5"/>
</g>
<!-- 37&#45;&gt;41 -->
<g id="edge40" class="edge"><title>37&#45;&gt;41</title>
<path fill="none" stroke="#fcfcfc" stroke-width="2" d="M701.213,-594.754C710.117,-590.81 720.935,-586.413 731,-583.379 812.455,-558.831 864.795,-612.949 919,-547.379 988.868,-462.862 800.493,-378.64 725.378,-349.346"/>
<polygon fill="#fcfcfc" stroke="#fcfcfc" stroke-width="2" points="726.569,-346.054 715.979,-345.737 724.06,-352.589 726.569,-346.054"/>
</g>
<!-- 37&#45;&gt;38 -->
<g id="edge41" class="edge"><title>37&#45;&gt;38</title>
<path fill="none" stroke="#fcfcfc" stroke-width="2" d="M671.331,-585.666C663.441,-572.194 652.569,-553.634 643.69,-538.475"/>
<polygon fill="#fcfcfc" stroke="#fcfcfc" stroke-width="2" points="646.537,-536.412 638.463,-529.552 640.497,-539.95 646.537,-536.412"/>
</g>
<!-- 39&#45;&gt;15 -->
<g id="edge49" class="edge"><title>39&#45;&gt;15</title>
<path fill="none" stroke="#fcfcfc" stroke-width="2" d="M570.913,-402.921C565.995,-399.858 560.475,-396.916 555,-395 426.167,-349.908 374.526,-414.898 250,-359 212.006,-341.945 177.724,-307.299 157.375,-283.739"/>
<polygon fill="#fcfcfc" stroke="#fcfcfc" stroke-width="2" points="159.898,-281.302 150.775,-275.915 154.547,-285.816 159.898,-281.302"/>
</g>
<!-- 41&#45;&gt;29 -->
<g id="edge50" class="edge"><title>41&#45;&gt;29</title>
<path fill="none" stroke="#fcfcfc" stroke-width="2" d="M679.975,-323.088C665.683,-311.126 644.554,-293.442 628.203,-279.757"/>
<polygon fill="#fcfcfc" stroke="#fcfcfc" stroke-width="2" points="630.065,-276.751 620.15,-273.017 625.572,-282.119 630.065,-276.751"/>
</g>
<!-- 38&#45;&gt;4 -->
<g id="edge51" class="edge"><title>38&#45;&gt;4</title>
<path fill="none" stroke="#fcfcfc" stroke-width="2" d="M615.252,-493.052C610.161,-486.815 604.071,-479.831 598,-474 583.355,-459.934 565.325,-445.951 550.847,-435.415"/>
<polygon fill="#fcfcfc" stroke="#fcfcfc" stroke-width="2" points="552.522,-432.309 542.354,-429.33 548.445,-437.999 552.522,-432.309"/>
</g>
<!-- 5&#45;&gt;23 -->
<g id="edge57" class="edge"><title>5&#45;&gt;23</title>
<path fill="none" stroke="#fcfcfc" stroke-width="2" d="M434.809,-245.129C416.18,-231.723 386.432,-210.315 366.327,-195.847"/>
<polygon fill="#fcfcfc" stroke="#fcfcfc" stroke-width="2" points="368.263,-192.929 358.102,-189.928 364.174,-198.61 368.263,-192.929"/>
</g>
<!-- 6 -->
<g id="node46" class="node"><title>6</title>
<ellipse fill="#edad56" stroke="#edad56" stroke-width="3" cx="467" cy="-179.5" rx="21.5" ry="21.5"/>
</g>
<!-- 5&#45;&gt;6 -->
<g id="edge58" class="edge"><title>5&#45;&gt;6</title>
<path fill="none" stroke="#fcfcfc" stroke-width="2" d="M455.941,-237.269C457.513,-229.199 459.357,-219.734 461.084,-210.871"/>
<polygon fill="#fcfcfc" stroke="#fcfcfc" stroke-width="2" points="464.556,-211.348 463.033,-200.863 457.686,-210.009 464.556,-211.348"/>
</g>
<!-- T35 -->
<g id="node47" class="node"><title>T35</title>
<ellipse fill="#edad56" stroke="#edad56" stroke-width="3" cx="406" cy="-179.5" rx="21.5" ry="21.5"/>
</g>
<!-- 5&#45;&gt;T35 -->
<g id="edge59" class="edge"><title>5&#45;&gt;T35</title>
<path fill="none" stroke="#fcfcfc" stroke-width="2" d="M441.331,-239.641C435.525,-229.923 428.231,-217.713 421.78,-206.915"/>
<polygon fill="#fcfcfc" stroke="#fcfcfc" stroke-width="2" points="424.744,-205.052 416.611,-198.262 418.735,-208.642 424.744,-205.052"/>
</g>
<!-- 22 -->
<g id="node48" class="node"><title>22</title>
<ellipse fill="#edad56" stroke="#edad56" stroke-width="3" cx="314" cy="-258.5" rx="21.5" ry="21.5"/>
</g>
<!-- 21&#45;&gt;22 -->
<g id="edge60" class="edge"><title>21&#45;&gt;22</title>
<path fill="none" stroke="#fcfcfc" stroke-width="2" d="M314,-315.865C314,-308.011 314,-298.882 314,-290.288"/>
<polygon fill="#fcfcfc" stroke="#fcfcfc" stroke-width="2" points="317.5,-290.192 314,-280.192 310.5,-290.192 317.5,-290.192"/>
</g>
<!-- 20&#45;&gt;15 -->
<g id="edge61" class="edge"><title>20&#45;&gt;15</title>
<path fill="none" stroke="#fcfcfc" stroke-width="2" d="M138,-315.865C138,-308.011 138,-298.882 138,-290.288"/>
<polygon fill="#fcfcfc" stroke="#fcfcfc" stroke-width="2" points="141.5,-290.192 138,-280.192 134.5,-290.192 141.5,-290.192"/>
</g>
<!-- 7 -->
<g id="node49" class="node"><title>7</title>
<ellipse fill="#edad56" stroke="#edad56" stroke-width="3" cx="467" cy="-100.5" rx="21.5" ry="21.5"/>
</g>
<!-- 6&#45;&gt;7 -->
<g id="edge63" class="edge"><title>6&#45;&gt;7</title>
<path fill="none" stroke="#fcfcfc" stroke-width="2" d="M467,-157.865C467,-150.011 467,-140.882 467,-132.288"/>
<polygon fill="#fcfcfc" stroke="#fcfcfc" stroke-width="2" points="470.5,-132.192 467,-122.192 463.5,-132.192 470.5,-132.192"/>
</g>
<!-- 22&#45;&gt;23 -->
<g id="edge66" class="edge"><title>22&#45;&gt;23</title>
<path fill="none" stroke="#fcfcfc" stroke-width="2" d="M321.823,-238.07C325.997,-227.7 331.166,-214.862 335.563,-203.942"/>
<polygon fill="#fcfcfc" stroke="#fcfcfc" stroke-width="2" points="338.844,-205.162 339.332,-194.578 332.351,-202.547 338.844,-205.162"/>
</g>
<!-- 22&#45;&gt;T35 -->
<g id="edge65" class="edge"><title>22&#45;&gt;T35</title>
<path fill="none" stroke="#fcfcfc" stroke-width="2" d="M330.025,-244.088C344.317,-232.126 365.446,-214.442 381.797,-200.757"/>
<polygon fill="#fcfcfc" stroke="#fcfcfc" stroke-width="2" points="384.428,-203.119 389.85,-194.017 379.935,-197.751 384.428,-203.119"/>
</g>
<!-- T8 -->
<g id="node50" class="node"><title>T8</title>
<ellipse fill="#edad56" stroke="#edad56" stroke-width="3" cx="467" cy="-21.5" rx="21.5" ry="21.5"/>
</g>
<!-- 7&#45;&gt;T8 -->
<g id="edge68" class="edge"><title>7&#45;&gt;T8</title>
<path fill="none" stroke="#fcfcfc" stroke-width="2" d="M467,-78.8654C467,-71.0111 467,-61.8822 467,-53.2879"/>
<polygon fill="#fcfcfc" stroke="#fcfcfc" stroke-width="2" points="470.5,-53.1915 467,-43.1915 463.5,-53.1916 470.5,-53.1915"/>
</g>
</g>
</svg>
